<mxfile host="app.diagrams.net" agent="Mozilla/5.0 (Windows NT 10.0; Win64; x64) AppleWebKit/537.36 (KHTML, like Gecko) Chrome/130.0.0.0 Safari/537.36 Edg/130.0.0.0" version="24.8.6">
  <diagram name="Página-1" id="7EqbGnTD_P887A8GHUBX">
    <mxGraphModel dx="3347" dy="1435" grid="1" gridSize="10" guides="1" tooltips="1" connect="1" arrows="1" fold="1" page="1" pageScale="1" pageWidth="827" pageHeight="1169" math="0" shadow="0">
      <root>
        <mxCell id="0" />
        <mxCell id="1" parent="0" />
        <mxCell id="k8rGbKiIvoDg0Clm_GOG-1" value="Página principal" style="whiteSpace=wrap;strokeWidth=2;fillColor=#fff2cc;strokeColor=#d6b656;" parent="1" vertex="1">
          <mxGeometry x="1572" y="70" width="101" height="49" as="geometry" />
        </mxCell>
        <mxCell id="k8rGbKiIvoDg0Clm_GOG-3" value="Colecciones" style="whiteSpace=wrap;strokeWidth=2;" parent="1" vertex="1">
          <mxGeometry x="1010" y="169" width="145" height="49" as="geometry" />
        </mxCell>
        <mxCell id="k8rGbKiIvoDg0Clm_GOG-4" value="Mi Cuenta" style="whiteSpace=wrap;strokeWidth=2;" parent="1" vertex="1">
          <mxGeometry x="1557" y="169" width="133" height="49" as="geometry" />
        </mxCell>
        <mxCell id="k8rGbKiIvoDg0Clm_GOG-5" value="Carrito" style="whiteSpace=wrap;strokeWidth=2;" parent="1" vertex="1">
          <mxGeometry x="2035" y="169" width="110" height="49" as="geometry" />
        </mxCell>
        <mxCell id="k8rGbKiIvoDg0Clm_GOG-6" value="Búsqueda" style="whiteSpace=wrap;strokeWidth=2;" parent="1" vertex="1">
          <mxGeometry x="2195" y="169" width="129" height="49" as="geometry" />
        </mxCell>
        <mxCell id="k8rGbKiIvoDg0Clm_GOG-7" value="Mujer" style="whiteSpace=wrap;strokeWidth=2;" parent="1" vertex="1">
          <mxGeometry x="350" y="268" width="103" height="49" as="geometry" />
        </mxCell>
        <mxCell id="k8rGbKiIvoDg0Clm_GOG-8" value="Hombre" style="whiteSpace=wrap;strokeWidth=2;" parent="1" vertex="1">
          <mxGeometry x="503" y="268" width="116" height="49" as="geometry" />
        </mxCell>
        <mxCell id="k8rGbKiIvoDg0Clm_GOG-9" value="Accesorios" style="whiteSpace=wrap;strokeWidth=2;" parent="1" vertex="1">
          <mxGeometry x="669" y="268" width="136" height="49" as="geometry" />
        </mxCell>
        <mxCell id="k8rGbKiIvoDg0Clm_GOG-10" value="Colección Destacada" style="whiteSpace=wrap;strokeWidth=2;" parent="1" vertex="1">
          <mxGeometry x="970" y="268" width="208" height="49" as="geometry" />
        </mxCell>
        <mxCell id="k8rGbKiIvoDg0Clm_GOG-11" value="Nuevos Catálogos" style="whiteSpace=wrap;strokeWidth=2;" parent="1" vertex="1">
          <mxGeometry x="468.5" y="169" width="185" height="49" as="geometry" />
        </mxCell>
        <mxCell id="k8rGbKiIvoDg0Clm_GOG-58" style="edgeStyle=orthogonalEdgeStyle;rounded=0;orthogonalLoop=1;jettySize=auto;html=1;exitX=0.5;exitY=1;exitDx=0;exitDy=0;" parent="1" source="k8rGbKiIvoDg0Clm_GOG-12" target="k8rGbKiIvoDg0Clm_GOG-15" edge="1">
          <mxGeometry relative="1" as="geometry" />
        </mxCell>
        <mxCell id="k8rGbKiIvoDg0Clm_GOG-59" style="edgeStyle=orthogonalEdgeStyle;rounded=0;orthogonalLoop=1;jettySize=auto;html=1;exitX=0.5;exitY=1;exitDx=0;exitDy=0;entryX=0.5;entryY=0;entryDx=0;entryDy=0;" parent="1" source="k8rGbKiIvoDg0Clm_GOG-12" target="k8rGbKiIvoDg0Clm_GOG-20" edge="1">
          <mxGeometry relative="1" as="geometry" />
        </mxCell>
        <mxCell id="k8rGbKiIvoDg0Clm_GOG-12" value="Iniciar Sesión" style="whiteSpace=wrap;strokeWidth=2;" parent="1" vertex="1">
          <mxGeometry x="1349" y="268" width="155" height="49" as="geometry" />
        </mxCell>
        <mxCell id="k8rGbKiIvoDg0Clm_GOG-13" value="Registrarse" style="whiteSpace=wrap;strokeWidth=2;" parent="1" vertex="1">
          <mxGeometry x="1554" y="268" width="139" height="49" as="geometry" />
        </mxCell>
        <mxCell id="k8rGbKiIvoDg0Clm_GOG-14" value="Recordar Contraseña" style="whiteSpace=wrap;strokeWidth=2;" parent="1" vertex="1">
          <mxGeometry x="1743" y="268" width="209" height="49" as="geometry" />
        </mxCell>
        <mxCell id="k8rGbKiIvoDg0Clm_GOG-62" style="edgeStyle=orthogonalEdgeStyle;rounded=0;orthogonalLoop=1;jettySize=auto;html=1;exitX=0;exitY=0.5;exitDx=0;exitDy=0;curved=1;" parent="1" source="k8rGbKiIvoDg0Clm_GOG-15" target="k8rGbKiIvoDg0Clm_GOG-24" edge="1">
          <mxGeometry relative="1" as="geometry" />
        </mxCell>
        <mxCell id="k8rGbKiIvoDg0Clm_GOG-15" value="Página del panel de Usuario Registrado" style="whiteSpace=wrap;strokeWidth=2;fillColor=#fff2cc;strokeColor=#d6b656;" parent="1" vertex="1">
          <mxGeometry x="1330" y="510" width="194" height="49" as="geometry" />
        </mxCell>
        <mxCell id="k8rGbKiIvoDg0Clm_GOG-16" value="Compras Pasadas" style="whiteSpace=wrap;strokeWidth=2;" parent="1" vertex="1">
          <mxGeometry x="991" y="609" width="182" height="49" as="geometry" />
        </mxCell>
        <mxCell id="k8rGbKiIvoDg0Clm_GOG-17" value="Gestionar Cuenta" style="whiteSpace=wrap;strokeWidth=2;" parent="1" vertex="1">
          <mxGeometry x="1224" y="609" width="185" height="49" as="geometry" />
        </mxCell>
        <mxCell id="k8rGbKiIvoDg0Clm_GOG-18" value="Seguir Pedido" style="whiteSpace=wrap;strokeWidth=2;" parent="1" vertex="1">
          <mxGeometry x="1458" y="609" width="157" height="49" as="geometry" />
        </mxCell>
        <mxCell id="k8rGbKiIvoDg0Clm_GOG-19" value="Hacer Comentarios" style="whiteSpace=wrap;strokeWidth=2;" parent="1" vertex="1">
          <mxGeometry x="1665" y="609" width="197" height="49" as="geometry" />
        </mxCell>
        <mxCell id="k8rGbKiIvoDg0Clm_GOG-61" style="edgeStyle=orthogonalEdgeStyle;rounded=0;orthogonalLoop=1;jettySize=auto;html=1;exitX=1;exitY=1;exitDx=0;exitDy=0;curved=1;" parent="1" source="k8rGbKiIvoDg0Clm_GOG-20" target="k8rGbKiIvoDg0Clm_GOG-25" edge="1">
          <mxGeometry relative="1" as="geometry" />
        </mxCell>
        <mxCell id="k8rGbKiIvoDg0Clm_GOG-20" value="Página del panel de Administración" style="whiteSpace=wrap;strokeWidth=2;fillColor=#fff2cc;strokeColor=#d6b656;" parent="1" vertex="1">
          <mxGeometry x="279" y="510" width="232" height="49" as="geometry" />
        </mxCell>
        <mxCell id="k8rGbKiIvoDg0Clm_GOG-21" value="Administrar Productos" style="whiteSpace=wrap;strokeWidth=2;" parent="1" vertex="1">
          <mxGeometry x="-210" y="609" width="219" height="49" as="geometry" />
        </mxCell>
        <mxCell id="k8rGbKiIvoDg0Clm_GOG-22" value="Gestionar Pedidos" style="whiteSpace=wrap;strokeWidth=2;" parent="1" vertex="1">
          <mxGeometry x="60" y="609" width="189" height="49" as="geometry" />
        </mxCell>
        <mxCell id="k8rGbKiIvoDg0Clm_GOG-23" value="Gestionar Usuarios" style="whiteSpace=wrap;strokeWidth=2;" parent="1" vertex="1">
          <mxGeometry x="298" y="609" width="194" height="49" as="geometry" />
        </mxCell>
        <mxCell id="k8rGbKiIvoDg0Clm_GOG-24" value="Subscribirse a VIP" style="whiteSpace=wrap;strokeWidth=2;" parent="1" vertex="1">
          <mxGeometry x="800" y="609" width="141" height="49" as="geometry" />
        </mxCell>
        <mxCell id="k8rGbKiIvoDg0Clm_GOG-25" value="Gestionar Inventario" style="whiteSpace=wrap;strokeWidth=2;" parent="1" vertex="1">
          <mxGeometry x="540" y="609" width="207" height="49" as="geometry" />
        </mxCell>
        <mxCell id="k8rGbKiIvoDg0Clm_GOG-26" value="Página del proceso de Pago" style="whiteSpace=wrap;strokeWidth=2;fillColor=#fff2cc;strokeColor=#d6b656;" parent="1" vertex="1">
          <mxGeometry x="2002" y="268" width="176" height="49" as="geometry" />
        </mxCell>
        <mxCell id="k8rGbKiIvoDg0Clm_GOG-27" value="Métodos de Pago" style="whiteSpace=wrap;strokeWidth=2;" parent="1" vertex="1">
          <mxGeometry x="1999" y="367" width="181" height="49" as="geometry" />
        </mxCell>
        <mxCell id="k8rGbKiIvoDg0Clm_GOG-28" value="Tarjeta de Crédito" style="whiteSpace=wrap;strokeWidth=2;" parent="1" vertex="1">
          <mxGeometry x="1753" y="466" width="193" height="49" as="geometry" />
        </mxCell>
        <mxCell id="k8rGbKiIvoDg0Clm_GOG-29" value="Tarjeta de Débito" style="whiteSpace=wrap;strokeWidth=2;" parent="1" vertex="1">
          <mxGeometry x="1996" y="466" width="187" height="49" as="geometry" />
        </mxCell>
        <mxCell id="k8rGbKiIvoDg0Clm_GOG-30" value="Pago en Caja" style="whiteSpace=wrap;strokeWidth=2;" parent="1" vertex="1">
          <mxGeometry x="2233" y="466" width="153" height="49" as="geometry" />
        </mxCell>
        <mxCell id="k8rGbKiIvoDg0Clm_GOG-31" value="" style="curved=1;startArrow=none;endArrow=block;exitX=0;exitY=0.55;entryX=0.5;entryY=0;rounded=0;" parent="1" source="k8rGbKiIvoDg0Clm_GOG-1" edge="1">
          <mxGeometry relative="1" as="geometry">
            <Array as="points">
              <mxPoint x="561" y="144" />
            </Array>
            <mxPoint x="561" y="169" as="targetPoint" />
          </mxGeometry>
        </mxCell>
        <mxCell id="k8rGbKiIvoDg0Clm_GOG-32" value="" style="curved=1;startArrow=none;endArrow=block;exitX=0;exitY=0.59;entryX=0.5;entryY=0;rounded=0;" parent="1" source="k8rGbKiIvoDg0Clm_GOG-1" target="k8rGbKiIvoDg0Clm_GOG-3" edge="1">
          <mxGeometry relative="1" as="geometry">
            <Array as="points">
              <mxPoint x="1083" y="144" />
            </Array>
          </mxGeometry>
        </mxCell>
        <mxCell id="k8rGbKiIvoDg0Clm_GOG-33" value="" style="curved=1;startArrow=none;endArrow=block;exitX=0.51;exitY=1;entryX=0.5;entryY=0;rounded=0;" parent="1" source="k8rGbKiIvoDg0Clm_GOG-1" target="k8rGbKiIvoDg0Clm_GOG-4" edge="1">
          <mxGeometry relative="1" as="geometry">
            <Array as="points" />
          </mxGeometry>
        </mxCell>
        <mxCell id="k8rGbKiIvoDg0Clm_GOG-34" value="" style="curved=1;startArrow=none;endArrow=block;exitX=1.01;exitY=0.61;entryX=0.5;entryY=0;rounded=0;" parent="1" source="k8rGbKiIvoDg0Clm_GOG-1" target="k8rGbKiIvoDg0Clm_GOG-5" edge="1">
          <mxGeometry relative="1" as="geometry">
            <Array as="points">
              <mxPoint x="2090" y="144" />
            </Array>
          </mxGeometry>
        </mxCell>
        <mxCell id="k8rGbKiIvoDg0Clm_GOG-35" value="" style="curved=1;startArrow=none;endArrow=block;exitX=1.01;exitY=0.58;entryX=0.5;entryY=0;rounded=0;" parent="1" source="k8rGbKiIvoDg0Clm_GOG-1" target="k8rGbKiIvoDg0Clm_GOG-6" edge="1">
          <mxGeometry relative="1" as="geometry">
            <Array as="points">
              <mxPoint x="2259" y="144" />
            </Array>
          </mxGeometry>
        </mxCell>
        <mxCell id="k8rGbKiIvoDg0Clm_GOG-36" value="" style="curved=1;startArrow=none;endArrow=block;exitX=0;exitY=1;entryX=0.5;entryY=0;rounded=0;exitDx=0;exitDy=0;" parent="1" source="k8rGbKiIvoDg0Clm_GOG-11" target="k8rGbKiIvoDg0Clm_GOG-7" edge="1">
          <mxGeometry relative="1" as="geometry">
            <Array as="points">
              <mxPoint x="401" y="243" />
            </Array>
            <mxPoint x="496" y="213.59000000000003" as="sourcePoint" />
          </mxGeometry>
        </mxCell>
        <mxCell id="k8rGbKiIvoDg0Clm_GOG-37" value="" style="curved=1;startArrow=none;endArrow=block;exitX=0.5;exitY=1;entryX=0.5;entryY=0;rounded=0;" parent="1" target="k8rGbKiIvoDg0Clm_GOG-8" edge="1">
          <mxGeometry relative="1" as="geometry">
            <Array as="points" />
            <mxPoint x="561" y="218" as="sourcePoint" />
          </mxGeometry>
        </mxCell>
        <mxCell id="k8rGbKiIvoDg0Clm_GOG-38" value="" style="curved=1;startArrow=none;endArrow=block;entryX=0.5;entryY=0;rounded=0;exitX=1;exitY=1;exitDx=0;exitDy=0;" parent="1" source="k8rGbKiIvoDg0Clm_GOG-11" target="k8rGbKiIvoDg0Clm_GOG-9" edge="1">
          <mxGeometry relative="1" as="geometry">
            <Array as="points">
              <mxPoint x="737" y="243" />
            </Array>
            <mxPoint x="650" y="220" as="sourcePoint" />
          </mxGeometry>
        </mxCell>
        <mxCell id="k8rGbKiIvoDg0Clm_GOG-39" value="" style="curved=1;startArrow=none;endArrow=block;exitX=0.5;exitY=1;entryX=0.5;entryY=0;rounded=0;exitDx=0;exitDy=0;" parent="1" source="k8rGbKiIvoDg0Clm_GOG-3" target="k8rGbKiIvoDg0Clm_GOG-10" edge="1">
          <mxGeometry relative="1" as="geometry">
            <Array as="points">
              <mxPoint x="1074" y="240" />
            </Array>
          </mxGeometry>
        </mxCell>
        <mxCell id="k8rGbKiIvoDg0Clm_GOG-41" value="" style="curved=1;startArrow=none;endArrow=block;exitX=0;exitY=0.84;entryX=0.5;entryY=0;rounded=0;" parent="1" source="k8rGbKiIvoDg0Clm_GOG-4" target="k8rGbKiIvoDg0Clm_GOG-12" edge="1">
          <mxGeometry relative="1" as="geometry">
            <Array as="points">
              <mxPoint x="1426" y="243" />
            </Array>
          </mxGeometry>
        </mxCell>
        <mxCell id="k8rGbKiIvoDg0Clm_GOG-42" value="" style="curved=1;startArrow=none;endArrow=block;exitX=0.5;exitY=1;entryX=0.5;entryY=0;rounded=0;" parent="1" source="k8rGbKiIvoDg0Clm_GOG-4" target="k8rGbKiIvoDg0Clm_GOG-13" edge="1">
          <mxGeometry relative="1" as="geometry">
            <Array as="points" />
          </mxGeometry>
        </mxCell>
        <mxCell id="k8rGbKiIvoDg0Clm_GOG-43" value="" style="curved=1;startArrow=none;endArrow=block;exitX=1;exitY=0.8;entryX=0.5;entryY=0;rounded=0;" parent="1" source="k8rGbKiIvoDg0Clm_GOG-4" target="k8rGbKiIvoDg0Clm_GOG-14" edge="1">
          <mxGeometry relative="1" as="geometry">
            <Array as="points">
              <mxPoint x="1847" y="243" />
            </Array>
          </mxGeometry>
        </mxCell>
        <mxCell id="k8rGbKiIvoDg0Clm_GOG-44" value="" style="curved=1;startArrow=none;endArrow=block;exitX=0;exitY=0.78;entryX=0.5;entryY=0;rounded=0;" parent="1" source="k8rGbKiIvoDg0Clm_GOG-15" target="k8rGbKiIvoDg0Clm_GOG-16" edge="1">
          <mxGeometry relative="1" as="geometry">
            <Array as="points">
              <mxPoint x="1083" y="584" />
            </Array>
          </mxGeometry>
        </mxCell>
        <mxCell id="k8rGbKiIvoDg0Clm_GOG-45" value="" style="curved=1;startArrow=none;endArrow=block;exitX=0.22;exitY=1;entryX=0.5;entryY=0;rounded=0;" parent="1" source="k8rGbKiIvoDg0Clm_GOG-15" target="k8rGbKiIvoDg0Clm_GOG-17" edge="1">
          <mxGeometry relative="1" as="geometry">
            <Array as="points">
              <mxPoint x="1316" y="584" />
            </Array>
          </mxGeometry>
        </mxCell>
        <mxCell id="k8rGbKiIvoDg0Clm_GOG-46" value="" style="curved=1;startArrow=none;endArrow=block;exitX=0.78;exitY=1;entryX=0.5;entryY=0;rounded=0;" parent="1" source="k8rGbKiIvoDg0Clm_GOG-15" target="k8rGbKiIvoDg0Clm_GOG-18" edge="1">
          <mxGeometry relative="1" as="geometry">
            <Array as="points">
              <mxPoint x="1537" y="584" />
            </Array>
          </mxGeometry>
        </mxCell>
        <mxCell id="k8rGbKiIvoDg0Clm_GOG-47" value="" style="curved=1;startArrow=none;endArrow=block;exitX=1;exitY=0.79;entryX=0.5;entryY=0;rounded=0;" parent="1" source="k8rGbKiIvoDg0Clm_GOG-15" target="k8rGbKiIvoDg0Clm_GOG-19" edge="1">
          <mxGeometry relative="1" as="geometry">
            <Array as="points">
              <mxPoint x="1764" y="584" />
            </Array>
          </mxGeometry>
        </mxCell>
        <mxCell id="k8rGbKiIvoDg0Clm_GOG-48" value="" style="curved=1;startArrow=none;endArrow=block;exitX=0;exitY=0.74;entryX=0.5;entryY=0;rounded=0;" parent="1" source="k8rGbKiIvoDg0Clm_GOG-20" target="k8rGbKiIvoDg0Clm_GOG-21" edge="1">
          <mxGeometry relative="1" as="geometry">
            <Array as="points">
              <mxPoint x="-100" y="584" />
            </Array>
          </mxGeometry>
        </mxCell>
        <mxCell id="k8rGbKiIvoDg0Clm_GOG-49" value="" style="curved=1;startArrow=none;endArrow=block;exitX=0;exitY=0.99;entryX=0.5;entryY=0;rounded=0;" parent="1" source="k8rGbKiIvoDg0Clm_GOG-20" target="k8rGbKiIvoDg0Clm_GOG-22" edge="1">
          <mxGeometry relative="1" as="geometry">
            <Array as="points">
              <mxPoint x="154" y="584" />
            </Array>
          </mxGeometry>
        </mxCell>
        <mxCell id="k8rGbKiIvoDg0Clm_GOG-50" value="" style="curved=1;startArrow=none;endArrow=block;exitX=0.5;exitY=1;entryX=0.5;entryY=0;rounded=0;" parent="1" source="k8rGbKiIvoDg0Clm_GOG-20" target="k8rGbKiIvoDg0Clm_GOG-23" edge="1">
          <mxGeometry relative="1" as="geometry">
            <Array as="points" />
          </mxGeometry>
        </mxCell>
        <mxCell id="k8rGbKiIvoDg0Clm_GOG-53" value="" style="curved=1;startArrow=none;endArrow=block;exitX=0.5;exitY=1;entryX=0.5;entryY=0;rounded=0;" parent="1" source="k8rGbKiIvoDg0Clm_GOG-5" target="k8rGbKiIvoDg0Clm_GOG-26" edge="1">
          <mxGeometry relative="1" as="geometry">
            <Array as="points" />
          </mxGeometry>
        </mxCell>
        <mxCell id="k8rGbKiIvoDg0Clm_GOG-54" value="" style="curved=1;startArrow=none;endArrow=block;exitX=0.5;exitY=1;entryX=0.5;entryY=0;rounded=0;" parent="1" source="k8rGbKiIvoDg0Clm_GOG-26" target="k8rGbKiIvoDg0Clm_GOG-27" edge="1">
          <mxGeometry relative="1" as="geometry">
            <Array as="points" />
          </mxGeometry>
        </mxCell>
        <mxCell id="k8rGbKiIvoDg0Clm_GOG-55" value="" style="curved=1;startArrow=none;endArrow=block;exitX=0;exitY=0.88;entryX=0.5;entryY=0;rounded=0;" parent="1" source="k8rGbKiIvoDg0Clm_GOG-27" target="k8rGbKiIvoDg0Clm_GOG-28" edge="1">
          <mxGeometry relative="1" as="geometry">
            <Array as="points">
              <mxPoint x="1850" y="441" />
            </Array>
          </mxGeometry>
        </mxCell>
        <mxCell id="k8rGbKiIvoDg0Clm_GOG-56" value="" style="curved=1;startArrow=none;endArrow=block;exitX=0.5;exitY=1;entryX=0.5;entryY=0;rounded=0;" parent="1" source="k8rGbKiIvoDg0Clm_GOG-27" target="k8rGbKiIvoDg0Clm_GOG-29" edge="1">
          <mxGeometry relative="1" as="geometry">
            <Array as="points" />
          </mxGeometry>
        </mxCell>
        <mxCell id="k8rGbKiIvoDg0Clm_GOG-57" value="" style="curved=1;startArrow=none;endArrow=block;exitX=1;exitY=0.92;entryX=0.5;entryY=0;rounded=0;" parent="1" source="k8rGbKiIvoDg0Clm_GOG-27" target="k8rGbKiIvoDg0Clm_GOG-30" edge="1">
          <mxGeometry relative="1" as="geometry">
            <Array as="points">
              <mxPoint x="2310" y="441" />
            </Array>
          </mxGeometry>
        </mxCell>
        <mxCell id="5_5cN3acgDgUJnhIzJPl-1" value="&lt;h1 style=&quot;text-align: center; margin-top: 0px;&quot;&gt;Mapa de navegación de la página web;&amp;nbsp;&lt;font color=&quot;#d6b656&quot;&gt;ELEGANZA&lt;/font&gt;&lt;/h1&gt;&lt;p&gt;Según lo descrito en los casos de usos y en el diseño de página web en Figma (mockup) se presenta el mapa de navegación correspondiente&amp;nbsp;&lt;/p&gt;&lt;p&gt;&lt;i&gt;Autor: Jairo Andrés Arcia Osorio&lt;/i&gt;&lt;/p&gt;" style="text;html=1;whiteSpace=wrap;overflow=hidden;rounded=0;" vertex="1" parent="1">
          <mxGeometry x="-150" y="169" width="390" height="160" as="geometry" />
        </mxCell>
      </root>
    </mxGraphModel>
  </diagram>
</mxfile>
